<svg xmlns="http://www.w3.org/2000/svg" xmlns:xlink="http://www.w3.org/1999/xlink" contentStyleType="text/css" data-diagram-type="CLASS" height="1152.0833px" preserveAspectRatio="none" style="width:2288px;height:1152px;" version="1.1" viewBox="0 0 2288 1152" width="2288.5417px" zoomAndPan="magnify"><title>Diagrama de Clases: Sistema de Gesti&#243;n de Contenido Audiovisual</title><defs><linearGradient id="g18hsn737fvogf0" x1="50%" x2="50%" y1="0%" y2="100%"><stop offset="0%" stop-color="#151515"/><stop offset="100%" stop-color="#000000"/></linearGradient><linearGradient id="g18hsn737fvogf1" x1="50%" x2="50%" y1="0%" y2="100%"><stop offset="0%" stop-color="#D3F198"/><stop offset="100%" stop-color="#B5E853"/></linearGradient></defs><g><g class="title" data-source-line="5"><rect fill="url(#g18hsn737fvogf0)" height="47.168" rx="4.1667" ry="4.1667" style="stroke:#B5E853;stroke-width:1.0417;" width="805.7943" x="737.1018" y="20.8333"/><text fill="#B5E853" font-family="'Verdana'" font-size="20.8333" font-weight="bold" lengthAdjust="spacing" textLength="782.8776" x="748.5602" y="51.6296">Diagrama de Clases: Sistema de Gesti&#243;n de Contenido Audiovisual</text></g><!--class IConsultable--><g class="entity" data-entity="IConsultable" data-source-line="11" data-uid="ent0002" id="entity_IConsultable"><rect fill="url(#g18hsn737fvogf1)" height="66.2598" rx="20.8333" ry="20.8333" style="stroke:#D3F198;stroke-width:1.0417;" width="239.8026" x="578.9896" y="134.2617"/><rect fill="url(#g18hsn737fvogf1)" height="34.1715" rx="20.8333" ry="20.8333" style="stroke:url(#g18hsn737fvogf1);stroke-width:1.0417;" width="239.8026" x="578.9896" y="134.2617"/><rect fill="url(#g18hsn737fvogf1)" height="20.8333" style="stroke:url(#g18hsn737fvogf1);stroke-width:1.0417;" width="239.8026" x="578.9896" y="147.5999"/><rect fill="none" height="66.2598" rx="20.8333" ry="20.8333" style="stroke:#D3F198;stroke-width:1.0417;" width="239.8026" x="578.9896" y="134.2617"/><ellipse cx="653.9715" cy="151.3475" fill="#BD6768" rx="10.4167" ry="10.4167" style="stroke:#FFFFFF;stroke-width:1.0417;"/><path d="M650.8628,148.5155 L650.8628,146.9204 L656.2827,146.9204 L656.2827,148.5155 L654.4761,148.5155 L654.4761,154.4399 L656.2827,154.4399 L656.2827,156.035 L650.8628,156.035 L650.8628,154.4399 L652.6694,154.4399 L652.6694,148.5155 L650.8628,148.5155 Z " fill="#151515"/><text fill="#151515" font-family="'Verdana'" font-size="11.4583" font-style="italic" lengthAdjust="spacing" textLength="71.0887" x="678.9715" y="155.3143">IConsultable</text><line style="stroke:#D3F198;stroke-width:1.0417;" x1="580.0313" x2="817.7505" y1="168.4333" y2="168.4333"/><text fill="#151515" font-family="'Verdana'" font-size="11.4583" lengthAdjust="spacing" textLength="216.8859" x="590.4479" y="188.4442">+mostrarDetallesCompletos() : String</text></g><!--class IModificable--><g class="entity" data-entity="IModificable" data-source-line="15" data-uid="ent0003" id="entity_IModificable"><rect fill="url(#g18hsn737fvogf1)" height="66.2598" rx="20.8333" ry="20.8333" style="stroke:#D3F198;stroke-width:1.0417;" width="372.6196" x="900.0833" y="134.2617"/><rect fill="url(#g18hsn737fvogf1)" height="34.1715" rx="20.8333" ry="20.8333" style="stroke:url(#g18hsn737fvogf1);stroke-width:1.0417;" width="372.6196" x="900.0833" y="134.2617"/><rect fill="url(#g18hsn737fvogf1)" height="20.8333" style="stroke:url(#g18hsn737fvogf1);stroke-width:1.0417;" width="372.6196" x="900.0833" y="147.5999"/><rect fill="none" height="66.2598" rx="20.8333" ry="20.8333" style="stroke:#D3F198;stroke-width:1.0417;" width="372.6196" x="900.0833" y="134.2617"/><ellipse cx="1042.6292" cy="151.3475" fill="#BD6768" rx="10.4167" ry="10.4167" style="stroke:#FFFFFF;stroke-width:1.0417;"/><path d="M1039.5204,148.5155 L1039.5204,146.9204 L1044.9404,146.9204 L1044.9404,148.5155 L1043.1337,148.5155 L1043.1337,154.4399 L1044.9404,154.4399 L1044.9404,156.035 L1039.5204,156.035 L1039.5204,154.4399 L1041.3271,154.4399 L1041.3271,148.5155 L1039.5204,148.5155 Z " fill="#151515"/><text fill="#151515" font-family="'Verdana'" font-size="11.4583" font-style="italic" lengthAdjust="spacing" textLength="68.778" x="1067.6292" y="155.3143">IModificable</text><line style="stroke:#D3F198;stroke-width:1.0417;" x1="901.125" x2="1271.6613" y1="168.4333" y2="168.4333"/><text fill="#151515" font-family="'Verdana'" font-size="11.4583" lengthAdjust="spacing" textLength="349.703" x="911.5417" y="188.4442">+modificarAtributo(atributo: String, nuevoValor: T) : boolean</text></g><!--class IControlable--><g class="entity" data-entity="IControlable" data-source-line="19" data-uid="ent0004" id="entity_IControlable"><rect fill="url(#g18hsn737fvogf1)" height="161.2793" rx="20.8333" ry="20.8333" style="stroke:#D3F198;stroke-width:1.0417;" width="341.3834" x="1935.4896" y="86.7513"/><rect fill="url(#g18hsn737fvogf1)" height="34.1715" rx="20.8333" ry="20.8333" style="stroke:url(#g18hsn737fvogf1);stroke-width:1.0417;" width="341.3834" x="1935.4896" y="86.7513"/><rect fill="url(#g18hsn737fvogf1)" height="20.8333" style="stroke:url(#g18hsn737fvogf1);stroke-width:1.0417;" width="341.3834" x="1935.4896" y="100.0895"/><rect fill="none" height="161.2793" rx="20.8333" ry="20.8333" style="stroke:#D3F198;stroke-width:1.0417;" width="341.3834" x="1935.4896" y="86.7513"/><ellipse cx="2062.0172" cy="103.8371" fill="#BD6768" rx="10.4167" ry="10.4167" style="stroke:#FFFFFF;stroke-width:1.0417;"/><path d="M2058.9085,101.005 L2058.9085,99.41 L2064.3284,99.41 L2064.3284,101.005 L2062.5218,101.005 L2062.5218,106.9295 L2064.3284,106.9295 L2064.3284,108.5246 L2058.9085,108.5246 L2058.9085,106.9295 L2060.7152,106.9295 L2060.7152,101.005 L2058.9085,101.005 Z " fill="#151515"/><text fill="#151515" font-family="'Verdana'" font-size="11.4583" font-style="italic" lengthAdjust="spacing" textLength="69.578" x="2087.0172" y="107.8039">IControlable</text><line style="stroke:#D3F198;stroke-width:1.0417;" x1="1936.5313" x2="2275.8313" y1="120.9229" y2="120.9229"/><text fill="#151515" font-family="'Verdana'" font-size="11.4583" lengthAdjust="spacing" textLength="227.0126" x="1946.9479" y="140.9337">+agregarNuevoObj (T objeto) : boolean</text><text fill="#151515" font-family="'Verdana'" font-size="11.4583" lengthAdjust="spacing" textLength="318.4667" x="1946.9479" y="164.6886">+buscarPorTitulo (titulo: String) : ContenidoAudiovisual</text><text fill="#151515" font-family="'Verdana'" font-size="11.4583" lengthAdjust="spacing" textLength="235.198" x="1946.9479" y="188.4435">+conteoPeliculasActor (actor: Actor) : int</text><text fill="#151515" font-family="'Verdana'" font-size="11.4583" lengthAdjust="spacing" textLength="278.7877" x="1946.9479" y="212.1984">+obtenerTodos (claseNom: Class&lt;T&gt;) : List&lt;T&gt;</text><text fill="#151515" font-family="'Verdana'" font-size="11.4583" lengthAdjust="spacing" textLength="156.0918" x="1946.9479" y="235.9533">+elimObj (id: int) : boolean</text></g><!--class ContenidoAudiovisual--><g class="entity" data-entity="ContenidoAudiovisual" data-source-line="31" data-uid="ent0005" id="entity_ContenidoAudiovisual"><rect fill="url(#g18hsn737fvogf1)" height="193.3675" rx="20.8333" ry="20.8333" style="stroke:#D3F198;stroke-width:1.0417;" width="166.1809" x="1116.8438" y="323.4492"/><rect fill="url(#g18hsn737fvogf1)" height="34.1715" rx="20.8333" ry="20.8333" style="stroke:url(#g18hsn737fvogf1);stroke-width:1.0417;" width="166.1809" x="1116.8438" y="323.4492"/><rect fill="url(#g18hsn737fvogf1)" height="20.8333" style="stroke:url(#g18hsn737fvogf1);stroke-width:1.0417;" width="166.1809" x="1116.8438" y="336.7874"/><rect fill="none" height="193.3675" rx="20.8333" ry="20.8333" style="stroke:#D3F198;stroke-width:1.0417;" width="166.1809" x="1116.8438" y="323.4492"/><ellipse cx="1131.4271" cy="340.535" fill="#A6BA7A" rx="10.4167" ry="10.4167" style="stroke:#FFFFFF;stroke-width:1.0417;"/><path d="M1131.0202,337.4914 L1130.1738,341.2186 L1131.8828,341.2186 L1131.0202,337.4914 Z M1129.9297,335.8475 L1132.127,335.8475 L1134.5846,344.9621 L1132.778,344.9621 L1132.2246,342.716 L1129.8158,342.716 L1129.2624,344.9621 L1127.4557,344.9621 L1129.9297,335.8475 Z " fill="#151515"/><text fill="#151515" font-family="'Verdana'" font-size="11.4583" font-style="italic" lengthAdjust="spacing" textLength="124.5143" x="1150.1771" y="344.5018">ContenidoAudiovisual</text><line style="stroke:#D3F198;stroke-width:1.0417;" x1="1117.8854" x2="1281.983" y1="357.6208" y2="357.6208"/><text fill="#151515" font-family="'Verdana'" font-size="11.4583" lengthAdjust="spacing" textLength="79.1005" x="1128.3021" y="377.6317">-titulo : String</text><text fill="#151515" font-family="'Verdana'" font-size="11.4583" lengthAdjust="spacing" textLength="139.8107" x="1128.3021" y="401.3865">-duracionEnMinutos : int</text><text fill="#151515" font-family="'Verdana'" font-size="11.4583" lengthAdjust="spacing" textLength="89.8315" x="1128.3021" y="425.1414">-genero : String</text><text fill="#151515" font-family="'Verdana'" font-size="11.4583" lengthAdjust="spacing" textLength="40.6748" x="1128.3021" y="448.8963">-id : int</text><line style="stroke:#D3F198;stroke-width:1.0417;" x1="1117.8854" x2="1281.983" y1="460.9736" y2="460.9736"/><text fill="#151515" font-family="'Verdana'" font-size="11.4583" lengthAdjust="spacing" textLength="114.9974" x="1128.3021" y="480.9845">+setId(id: int) : void</text><text fill="#151515" font-family="'Verdana'" font-size="11.4583" lengthAdjust="spacing" textLength="74.0931" x="1128.3021" y="504.7394">+getId() : int</text></g><!--class GestorContenidos--><g class="entity" data-entity="GestorContenidos" data-source-line="41" data-uid="ent0006" id="entity_GestorContenidos"><rect fill="url(#g18hsn737fvogf1)" height="217.1224" rx="20.8333" ry="20.8333" style="stroke:#D3F198;stroke-width:1.0417;" width="262.8367" x="1974.7604" y="311.5742"/><rect fill="url(#g18hsn737fvogf1)" height="34.1715" rx="20.8333" ry="20.8333" style="stroke:url(#g18hsn737fvogf1);stroke-width:1.0417;" width="262.8367" x="1974.7604" y="311.5742"/><rect fill="url(#g18hsn737fvogf1)" height="20.8333" style="stroke:url(#g18hsn737fvogf1);stroke-width:1.0417;" width="262.8367" x="1974.7604" y="324.9124"/><rect fill="none" height="217.1224" rx="20.8333" ry="20.8333" style="stroke:#D3F198;stroke-width:1.0417;" width="262.8367" x="1974.7604" y="311.5742"/><ellipse cx="2045.4902" cy="328.66" fill="#557F91" rx="10.4167" ry="10.4167" style="stroke:#88B2C4;stroke-width:1.0417;"/><path d="M2047.3945,333.0871 Q2046.9714,333.2987 2046.4994,333.4126 Q2046.0274,333.5265 2045.5228,333.5265 Q2043.6673,333.5265 2042.6908,332.3221 Q2041.7305,331.1014 2041.7305,328.8065 Q2041.7305,326.4953 2042.6908,325.2909 Q2043.6673,324.0701 2045.5228,324.0701 Q2046.0274,324.0701 2046.4994,324.1841 Q2046.9876,324.2817 2047.3945,324.5096 L2047.3945,326.5116 Q2046.9388,326.0884 2046.4994,325.8931 Q2046.0599,325.6815 2045.6042,325.6815 Q2044.6113,325.6815 2044.1068,326.479 Q2043.6022,327.2603 2043.6022,328.8065 Q2043.6022,330.3364 2044.1068,331.1177 Q2044.6113,331.8989 2045.6042,331.8989 Q2046.0599,331.8989 2046.4994,331.7036 Q2046.9388,331.5083 2047.3945,331.0851 L2047.3945,333.0871 Z " fill="#151515"/><text fill="#151515" font-family="'Verdana'" font-size="11.4583" lengthAdjust="spacing" textLength="102.6271" x="2070.4902" y="332.6268">GestorContenidos</text><line style="stroke:#D3F198;stroke-width:1.0417;" x1="1975.8021" x2="2236.5555" y1="345.7458" y2="345.7458"/><text fill="#151515" font-family="'Verdana'" font-size="11.4583" lengthAdjust="spacing" text-decoration="underline" textLength="40.6748" x="1986.2188" y="365.7567">-id : int</text><text fill="#151515" font-family="'Verdana'" font-size="11.4583" lengthAdjust="spacing" textLength="149.0311" x="1986.2188" y="389.5115">-peliculas : List&lt;Pelicula&gt;</text><text fill="#151515" font-family="'Verdana'" font-size="11.4583" lengthAdjust="spacing" textLength="148.4212" x="1986.2188" y="413.2664">-series : List&lt;SerieDeTV&gt;</text><text fill="#151515" font-family="'Verdana'" font-size="11.4583" lengthAdjust="spacing" textLength="205.1142" x="1986.2188" y="437.0213">-documentales : List&lt;Documental&gt;</text><line style="stroke:#D3F198;stroke-width:1.0417;" x1="1975.8021" x2="2236.5555" y1="449.0986" y2="449.0986"/><text fill="#151515" font-family="'Verdana'" font-size="11.4583" lengthAdjust="spacing" textLength="121.1685" x="1986.2188" y="469.1095">+GestorContenidos()</text><text fill="#151515" font-family="'Verdana'" font-size="11.4583" lengthAdjust="spacing" textLength="167.7236" x="1986.2188" y="492.8644">+buscarPorId(id: int) : Object</text><text fill="#151515" font-family="'Verdana'" font-size="11.4583" lengthAdjust="spacing" textLength="239.92" x="1986.2188" y="516.6193">-borrarRelacion(objetoEliminado: T) : void</text></g><!--class Pelicula--><g class="entity" data-entity="Pelicula" data-source-line="57" data-uid="ent0007" id="entity_Pelicula"><rect fill="url(#g18hsn737fvogf1)" height="169.6126" rx="20.8333" ry="20.8333" style="stroke:#D3F198;stroke-width:1.0417;" width="221.3506" x="905.9271" y="640.9909"/><rect fill="url(#g18hsn737fvogf1)" height="34.1715" rx="20.8333" ry="20.8333" style="stroke:url(#g18hsn737fvogf1);stroke-width:1.0417;" width="221.3506" x="905.9271" y="640.9909"/><rect fill="url(#g18hsn737fvogf1)" height="20.8333" style="stroke:url(#g18hsn737fvogf1);stroke-width:1.0417;" width="221.3506" x="905.9271" y="654.3291"/><rect fill="none" height="169.6126" rx="20.8333" ry="20.8333" style="stroke:#D3F198;stroke-width:1.0417;" width="221.3506" x="905.9271" y="640.9909"/><ellipse cx="985.1807" cy="658.0767" fill="#557F91" rx="10.4167" ry="10.4167" style="stroke:#88B2C4;stroke-width:1.0417;"/><path d="M987.085,662.5037 Q986.6618,662.7153 986.1898,662.8293 Q985.7178,662.9432 985.2133,662.9432 Q983.3578,662.9432 982.3812,661.7388 Q981.421,660.5181 981.421,658.2231 Q981.421,655.9119 982.3812,654.7075 Q983.3578,653.4868 985.2133,653.4868 Q985.7178,653.4868 986.1898,653.6007 Q986.6781,653.6984 987.085,653.9263 L987.085,655.9282 Q986.6293,655.505 986.1898,655.3097 Q985.7504,655.0981 985.2947,655.0981 Q984.3018,655.0981 983.7973,655.8957 Q983.2927,656.6769 983.2927,658.2231 Q983.2927,659.7531 983.7973,660.5343 Q984.3018,661.3156 985.2947,661.3156 Q985.7504,661.3156 986.1898,661.1203 Q986.6293,660.925 987.085,660.5018 L987.085,662.5037 Z " fill="#151515"/><text fill="#151515" font-family="'Verdana'" font-size="11.4583" lengthAdjust="spacing" textLength="44.0933" x="1010.1807" y="662.0434">Pelicula</text><line style="stroke:#D3F198;stroke-width:1.0417;" x1="906.9688" x2="1126.236" y1="675.1624" y2="675.1624"/><text fill="#151515" font-family="'Verdana'" font-size="11.4583" lengthAdjust="spacing" textLength="91.717" x="917.3854" y="695.1733">-estudio : String</text><text fill="#151515" font-family="'Verdana'" font-size="11.4583" lengthAdjust="spacing" textLength="127.418" x="917.3854" y="718.9282">-actores : List&lt;Actor&gt;</text><line style="stroke:#D3F198;stroke-width:1.0417;" x1="906.9688" x2="1126.236" y1="731.0055" y2="731.0055"/><text fill="#151515" font-family="'Verdana'" font-size="11.4583" lengthAdjust="spacing" textLength="196.7387" x="917.3854" y="751.0164">+agregarActor(actor: Actor) : void</text><text fill="#151515" font-family="'Verdana'" font-size="11.4583" lengthAdjust="spacing" textLength="198.4339" x="917.3854" y="774.7713">+eliminarActor(actor: Actor) : void</text><text fill="#151515" font-family="'Verdana'" font-size="11.4583" lengthAdjust="spacing" textLength="161.4573" x="917.3854" y="798.5262">+getActores() : List&lt;Actor&gt;</text></g><!--class SerieDeTV--><g class="entity" data-entity="SerieDeTV" data-source-line="66" data-uid="ent0008" id="entity_SerieDeTV"><rect fill="url(#g18hsn737fvogf1)" height="193.3675" rx="20.8333" ry="20.8333" style="stroke:#D3F198;stroke-width:1.0417;" width="325.1694" x="1163.3958" y="629.1159"/><rect fill="url(#g18hsn737fvogf1)" height="34.1715" rx="20.8333" ry="20.8333" style="stroke:url(#g18hsn737fvogf1);stroke-width:1.0417;" width="325.1694" x="1163.3958" y="629.1159"/><rect fill="url(#g18hsn737fvogf1)" height="20.8333" style="stroke:url(#g18hsn737fvogf1);stroke-width:1.0417;" width="325.1694" x="1163.3958" y="642.4541"/><rect fill="none" height="193.3675" rx="20.8333" ry="20.8333" style="stroke:#D3F198;stroke-width:1.0417;" width="325.1694" x="1163.3958" y="629.1159"/><ellipse cx="1286.6169" cy="646.2017" fill="#557F91" rx="10.4167" ry="10.4167" style="stroke:#88B2C4;stroke-width:1.0417;"/><path d="M1288.5212,650.6287 Q1288.098,650.8403 1287.626,650.9543 Q1287.154,651.0682 1286.6495,651.0682 Q1284.794,651.0682 1283.8174,649.8638 Q1282.8571,648.6431 1282.8571,646.3481 Q1282.8571,644.0369 1283.8174,642.8325 Q1284.794,641.6118 1286.6495,641.6118 Q1287.154,641.6118 1287.626,641.7257 Q1288.1143,641.8234 1288.5212,642.0513 L1288.5212,644.0532 Q1288.0655,643.63 1287.626,643.4347 Q1287.1866,643.2231 1286.7308,643.2231 Q1285.738,643.2231 1285.2334,644.0207 Q1284.7289,644.8019 1284.7289,646.3481 Q1284.7289,647.8781 1285.2334,648.6593 Q1285.738,649.4406 1286.7308,649.4406 Q1287.1866,649.4406 1287.626,649.2453 Q1288.0655,649.05 1288.5212,648.6268 L1288.5212,650.6287 Z " fill="#151515"/><text fill="#151515" font-family="'Verdana'" font-size="11.4583" lengthAdjust="spacing" textLength="59.9772" x="1311.6169" y="650.1684">SerieDeTV</text><line style="stroke:#D3F198;stroke-width:1.0417;" x1="1164.4375" x2="1487.5235" y1="663.2874" y2="663.2874"/><text fill="#151515" font-family="'Verdana'" font-size="11.4583" lengthAdjust="spacing" textLength="98.4309" x="1174.8542" y="683.2983">-anioEstreno : int</text><text fill="#151515" font-family="'Verdana'" font-size="11.4583" lengthAdjust="spacing" textLength="120.4132" x="1174.8542" y="707.0532">-enEmision : boolean</text><text fill="#151515" font-family="'Verdana'" font-size="11.4583" lengthAdjust="spacing" textLength="157.0206" x="1174.8542" y="730.8081">-tempo : List&lt;Temporada&gt;</text><line style="stroke:#D3F198;stroke-width:1.0417;" x1="1164.4375" x2="1487.5235" y1="742.8854" y2="742.8854"/><text fill="#151515" font-family="'Verdana'" font-size="11.4583" lengthAdjust="spacing" textLength="300.5575" x="1174.8542" y="762.8963">+agregarTemporada(temporada: Temporada) : void</text><text fill="#151515" font-family="'Verdana'" font-size="11.4583" lengthAdjust="spacing" textLength="302.2527" x="1174.8542" y="786.6512">+eliminarTemporada(temporada: Temporada) : void</text><text fill="#151515" font-family="'Verdana'" font-size="11.4583" lengthAdjust="spacing" textLength="192.7495" x="1174.8542" y="810.4061">+getTempo() : List&lt;Temporada&gt;</text></g><!--class Documental--><g class="entity" data-entity="Documental" data-source-line="76" data-uid="ent0009" id="entity_Documental"><rect fill="url(#g18hsn737fvogf1)" height="145.8577" rx="20.8333" ry="20.8333" style="stroke:#D3F198;stroke-width:1.0417;" width="249.3139" x="229.4479" y="652.8659"/><rect fill="url(#g18hsn737fvogf1)" height="34.1715" rx="20.8333" ry="20.8333" style="stroke:url(#g18hsn737fvogf1);stroke-width:1.0417;" width="249.3139" x="229.4479" y="652.8659"/><rect fill="url(#g18hsn737fvogf1)" height="20.8333" style="stroke:url(#g18hsn737fvogf1);stroke-width:1.0417;" width="249.3139" x="229.4479" y="666.2041"/><rect fill="none" height="145.8577" rx="20.8333" ry="20.8333" style="stroke:#D3F198;stroke-width:1.0417;" width="249.3139" x="229.4479" y="652.8659"/><ellipse cx="309.9464" cy="669.9517" fill="#557F91" rx="10.4167" ry="10.4167" style="stroke:#88B2C4;stroke-width:1.0417;"/><path d="M311.8507,674.3787 Q311.4275,674.5903 310.9555,674.7043 Q310.4835,674.8182 309.979,674.8182 Q308.1235,674.8182 307.1469,673.6138 Q306.1867,672.3931 306.1867,670.0981 Q306.1867,667.7869 307.1469,666.5825 Q308.1235,665.3618 309.979,665.3618 Q310.4835,665.3618 310.9555,665.4757 Q311.4438,665.5734 311.8507,665.8013 L311.8507,667.8032 Q311.395,667.38 310.9555,667.1847 Q310.5161,666.9731 310.0604,666.9731 Q309.0675,666.9731 308.563,667.7707 Q308.0584,668.5519 308.0584,670.0981 Q308.0584,671.6281 308.563,672.4093 Q309.0675,673.1906 310.0604,673.1906 Q310.5161,673.1906 310.9555,672.9953 Q311.395,672.8 311.8507,672.3768 L311.8507,674.3787 Z " fill="#151515"/><text fill="#151515" font-family="'Verdana'" font-size="11.4583" lengthAdjust="spacing" textLength="69.5669" x="334.9464" y="673.9184">Documental</text><line style="stroke:#D3F198;stroke-width:1.0417;" x1="230.4896" x2="477.7201" y1="687.0374" y2="687.0374"/><text fill="#151515" font-family="'Verdana'" font-size="11.4583" lengthAdjust="spacing" textLength="79.2013" x="240.9063" y="707.0483">-tema : String</text><text fill="#151515" font-family="'Verdana'" font-size="11.4583" lengthAdjust="spacing" textLength="124.6094" x="240.9063" y="730.8032">-investi : Investigador</text><line style="stroke:#D3F198;stroke-width:1.0417;" x1="230.4896" x2="477.7201" y1="742.8805" y2="742.8805"/><text fill="#151515" font-family="'Verdana'" font-size="11.4583" lengthAdjust="spacing" textLength="226.3972" x="240.9063" y="762.8914">+setInvesti(investi: Investigador) : void</text><text fill="#151515" font-family="'Verdana'" font-size="11.4583" lengthAdjust="spacing" textLength="158.0276" x="240.9063" y="786.6463">+getInvesti() : Investigador</text></g><!--class Actor--><g class="entity" data-entity="Actor" data-source-line="84" data-uid="ent0010" id="entity_Actor"><rect fill="url(#g18hsn737fvogf1)" height="217.1224" rx="20.8333" ry="20.8333" style="stroke:#D3F198;stroke-width:1.0417;" width="262.059" x="817.8646" y="311.5742"/><rect fill="url(#g18hsn737fvogf1)" height="34.1715" rx="20.8333" ry="20.8333" style="stroke:url(#g18hsn737fvogf1);stroke-width:1.0417;" width="262.059" x="817.8646" y="311.5742"/><rect fill="url(#g18hsn737fvogf1)" height="20.8333" style="stroke:url(#g18hsn737fvogf1);stroke-width:1.0417;" width="262.059" x="817.8646" y="324.9124"/><rect fill="none" height="217.1224" rx="20.8333" ry="20.8333" style="stroke:#D3F198;stroke-width:1.0417;" width="262.059" x="817.8646" y="311.5742"/><ellipse cx="924.343" cy="328.66" fill="#557F91" rx="10.4167" ry="10.4167" style="stroke:#88B2C4;stroke-width:1.0417;"/><path d="M926.2473,333.0871 Q925.8241,333.2987 925.3521,333.4126 Q924.8801,333.5265 924.3755,333.5265 Q922.52,333.5265 921.5435,332.3221 Q920.5832,331.1014 920.5832,328.8065 Q920.5832,326.4953 921.5435,325.2909 Q922.52,324.0701 924.3755,324.0701 Q924.8801,324.0701 925.3521,324.1841 Q925.8404,324.2817 926.2473,324.5096 L926.2473,326.5116 Q925.7915,326.0884 925.3521,325.8931 Q924.9126,325.6815 924.4569,325.6815 Q923.4641,325.6815 922.9595,326.479 Q922.4549,327.2603 922.4549,328.8065 Q922.4549,330.3364 922.9595,331.1177 Q923.4641,331.8989 924.4569,331.8989 Q924.9126,331.8989 925.3521,331.7036 Q925.7915,331.5083 926.2473,331.0851 L926.2473,333.0871 Z " fill="#151515"/><text fill="#151515" font-family="'Verdana'" font-size="11.4583" lengthAdjust="spacing" textLength="30.3523" x="949.343" y="332.6268">Actor</text><line style="stroke:#D3F198;stroke-width:1.0417;" x1="818.9063" x2="1078.8819" y1="345.7458" y2="345.7458"/><text fill="#151515" font-family="'Verdana'" font-size="11.4583" lengthAdjust="spacing" textLength="93.9438" x="829.3229" y="365.7567">-nombre : String</text><text fill="#151515" font-family="'Verdana'" font-size="11.4583" lengthAdjust="spacing" textLength="94.6543" x="829.3229" y="389.5115">-apellido : String</text><text fill="#151515" font-family="'Verdana'" font-size="11.4583" lengthAdjust="spacing" textLength="122.4721" x="829.3229" y="413.2664">-nacionalidad : String</text><text fill="#151515" font-family="'Verdana'" font-size="11.4583" lengthAdjust="spacing" textLength="149.0311" x="829.3229" y="437.0213">-peliculas : List&lt;Pelicula&gt;</text><line style="stroke:#D3F198;stroke-width:1.0417;" x1="818.9063" x2="1078.8819" y1="449.0986" y2="449.0986"/><text fill="#151515" font-family="'Verdana'" font-size="11.4583" lengthAdjust="spacing" textLength="239.1424" x="829.3229" y="469.1095">+agregarPelicula(pelicula: Pelicula) : void</text><text fill="#151515" font-family="'Verdana'" font-size="11.4583" lengthAdjust="spacing" textLength="217.0705" x="829.3229" y="492.8644">+eliminarPelicula(peli: Pelicula) : void</text><text fill="#151515" font-family="'Verdana'" font-size="11.4583" lengthAdjust="spacing" textLength="181.8899" x="829.3229" y="516.6193">+getPeliculas() : List&lt;Pelicula&gt;</text></g><!--class Temporada--><g class="entity" data-entity="Temporada" data-source-line="95" data-uid="ent0011" id="entity_Temporada"><rect fill="url(#g18hsn737fvogf1)" height="217.1224" rx="20.8333" ry="20.8333" style="stroke:#D3F198;stroke-width:1.0417;" width="219.0735" x="1216.4375" y="922.8971"/><rect fill="url(#g18hsn737fvogf1)" height="34.1715" rx="20.8333" ry="20.8333" style="stroke:url(#g18hsn737fvogf1);stroke-width:1.0417;" width="219.0735" x="1216.4375" y="922.8971"/><rect fill="url(#g18hsn737fvogf1)" height="20.8333" style="stroke:url(#g18hsn737fvogf1);stroke-width:1.0417;" width="219.0735" x="1216.4375" y="936.2354"/><rect fill="none" height="217.1224" rx="20.8333" ry="20.8333" style="stroke:#D3F198;stroke-width:1.0417;" width="219.0735" x="1216.4375" y="922.8971"/><ellipse cx="1283.8384" cy="939.9829" fill="#557F91" rx="10.4167" ry="10.4167" style="stroke:#88B2C4;stroke-width:1.0417;"/><path d="M1285.7427,944.41 Q1285.3195,944.6216 1284.8475,944.7355 Q1284.3755,944.8494 1283.8709,944.8494 Q1282.0155,944.8494 1281.0389,943.645 Q1280.0786,942.4243 1280.0786,940.1294 Q1280.0786,937.8182 1281.0389,936.6138 Q1282.0155,935.3931 1283.8709,935.3931 Q1284.3755,935.3931 1284.8475,935.507 Q1285.3358,935.6047 1285.7427,935.8325 L1285.7427,937.8345 Q1285.2869,937.4113 1284.8475,937.216 Q1284.408,937.0044 1283.9523,937.0044 Q1282.9595,937.0044 1282.4549,937.8019 Q1281.9503,938.5832 1281.9503,940.1294 Q1281.9503,941.6593 1282.4549,942.4406 Q1282.9595,943.2218 1283.9523,943.2218 Q1284.408,943.2218 1284.8475,943.0265 Q1285.2869,942.8312 1285.7427,942.408 L1285.7427,944.41 Z " fill="#151515"/><text fill="#151515" font-family="'Verdana'" font-size="11.4583" lengthAdjust="spacing" textLength="65.5217" x="1308.8384" y="943.9497">Temporada</text><line style="stroke:#D3F198;stroke-width:1.0417;" x1="1217.4792" x2="1434.4693" y1="957.0687" y2="957.0687"/><text fill="#151515" font-family="'Verdana'" font-size="11.4583" lengthAdjust="spacing" textLength="121.4259" x="1227.8958" y="977.0796">-numTemporada : int</text><text fill="#151515" font-family="'Verdana'" font-size="11.4583" lengthAdjust="spacing" textLength="103.2201" x="1227.8958" y="1000.8345">-serie : SerieDeTV</text><text fill="#151515" font-family="'Verdana'" font-size="11.4583" lengthAdjust="spacing" textLength="144.6223" x="1227.8958" y="1024.5893">-tituloTemporada : String</text><text fill="#151515" font-family="'Verdana'" font-size="11.4583" lengthAdjust="spacing" textLength="133.4437" x="1227.8958" y="1048.3442">-cantidadCapitulos : int</text><text fill="#151515" font-family="'Verdana'" font-size="11.4583" lengthAdjust="spacing" textLength="147.968" x="1227.8958" y="1072.0991">-fechaEstreno : LocalDate</text><line style="stroke:#D3F198;stroke-width:1.0417;" x1="1217.4792" x2="1434.4693" y1="1084.1764" y2="1084.1764"/><text fill="#151515" font-family="'Verdana'" font-size="11.4583" lengthAdjust="spacing" textLength="196.1568" x="1227.8958" y="1104.1873">+setSerie(serie: SerieDeTV) : void</text><text fill="#151515" font-family="'Verdana'" font-size="11.4583" lengthAdjust="spacing" textLength="137.7462" x="1227.8958" y="1127.9422">+getSerie() : SerieDeTV</text></g><!--class Investigador--><g class="entity" data-entity="Investigador" data-source-line="106" data-uid="ent0012" id="entity_Investigador"><rect fill="url(#g18hsn737fvogf1)" height="217.1224" rx="20.8333" ry="20.8333" style="stroke:#D3F198;stroke-width:1.0417;" width="250.9979" x="618.1875" y="617.2409"/><rect fill="url(#g18hsn737fvogf1)" height="34.1715" rx="20.8333" ry="20.8333" style="stroke:url(#g18hsn737fvogf1);stroke-width:1.0417;" width="250.9979" x="618.1875" y="617.2409"/><rect fill="url(#g18hsn737fvogf1)" height="20.8333" style="stroke:url(#g18hsn737fvogf1);stroke-width:1.0417;" width="250.9979" x="618.1875" y="630.5791"/><rect fill="none" height="217.1224" rx="20.8333" ry="20.8333" style="stroke:#D3F198;stroke-width:1.0417;" width="250.9979" x="618.1875" y="617.2409"/><ellipse cx="698.6077" cy="634.3267" fill="#557F91" rx="10.4167" ry="10.4167" style="stroke:#88B2C4;stroke-width:1.0417;"/><path d="M700.512,638.7537 Q700.0888,638.9653 699.6168,639.0793 Q699.1448,639.1932 698.6402,639.1932 Q696.7848,639.1932 695.8082,637.9888 Q694.8479,636.7681 694.8479,634.4731 Q694.8479,632.1619 695.8082,630.9575 Q696.7848,629.7368 698.6402,629.7368 Q699.1448,629.7368 699.6168,629.8507 Q700.1051,629.9484 700.512,630.1763 L700.512,632.1782 Q700.0562,631.755 699.6168,631.5597 Q699.1773,631.3481 698.7216,631.3481 Q697.7288,631.3481 697.2242,632.1457 Q696.7197,632.9269 696.7197,634.4731 Q696.7197,636.0031 697.2242,636.7843 Q697.7288,637.5656 698.7216,637.5656 Q699.1773,637.5656 699.6168,637.3703 Q700.0562,637.175 700.512,636.7518 L700.512,638.7537 Z " fill="#151515"/><text fill="#151515" font-family="'Verdana'" font-size="11.4583" lengthAdjust="spacing" textLength="71.4076" x="723.6077" y="638.2934">Investigador</text><line style="stroke:#D3F198;stroke-width:1.0417;" x1="619.2292" x2="868.1438" y1="651.4124" y2="651.4124"/><text fill="#151515" font-family="'Verdana'" font-size="11.4583" lengthAdjust="spacing" textLength="93.9438" x="629.6458" y="671.4233">-nombre : String</text><text fill="#151515" font-family="'Verdana'" font-size="11.4583" lengthAdjust="spacing" textLength="94.6543" x="629.6458" y="695.1782">-apellido : String</text><text fill="#151515" font-family="'Verdana'" font-size="11.4583" lengthAdjust="spacing" textLength="147.2519" x="629.6458" y="718.9331">-areaEspecialidad : String</text><text fill="#151515" font-family="'Verdana'" font-size="11.4583" lengthAdjust="spacing" textLength="122.4721" x="629.6458" y="742.688">-nacionalidad : String</text><text fill="#151515" font-family="'Verdana'" font-size="11.4583" lengthAdjust="spacing" textLength="123.8541" x="629.6458" y="766.4429">-docum : Documental</text><line style="stroke:#D3F198;stroke-width:1.0417;" x1="619.2292" x2="868.1438" y1="778.5202" y2="778.5202"/><text fill="#151515" font-family="'Verdana'" font-size="11.4583" lengthAdjust="spacing" textLength="228.0813" x="629.6458" y="798.5311">+setDocum(docum: Documental) : void</text><text fill="#151515" font-family="'Verdana'" font-size="11.4583" lengthAdjust="spacing" textLength="158.6263" x="629.6458" y="822.2859">+getDocum() : Documental</text></g><!--class MainAudioVisual--><g class="entity" data-entity="MainAudioVisual" data-source-line="117" data-uid="ent0013" id="entity_MainAudioVisual"><rect fill="url(#g18hsn737fvogf1)" height="90.0146" rx="20.8333" ry="20.8333" style="stroke:#D3F198;stroke-width:1.0417;" width="305.2516" x="1599.3958" y="375.1263"/><rect fill="url(#g18hsn737fvogf1)" height="34.1715" rx="20.8333" ry="20.8333" style="stroke:url(#g18hsn737fvogf1);stroke-width:1.0417;" width="305.2516" x="1599.3958" y="375.1263"/><rect fill="url(#g18hsn737fvogf1)" height="20.8333" style="stroke:url(#g18hsn737fvogf1);stroke-width:1.0417;" width="305.2516" x="1599.3958" y="388.4645"/><rect fill="none" height="90.0146" rx="20.8333" ry="20.8333" style="stroke:#D3F198;stroke-width:1.0417;" width="305.2516" x="1599.3958" y="375.1263"/><ellipse cx="1695.4565" cy="392.2121" fill="#557F91" rx="10.4167" ry="10.4167" style="stroke:#88B2C4;stroke-width:1.0417;"/><path d="M1697.3608,396.6392 Q1696.9376,396.8507 1696.4656,396.9647 Q1695.9936,397.0786 1695.4891,397.0786 Q1693.6336,397.0786 1692.657,395.8742 Q1691.6968,394.6535 1691.6968,392.3586 Q1691.6968,390.0474 1692.657,388.8429 Q1693.6336,387.6222 1695.4891,387.6222 Q1695.9936,387.6222 1696.4656,387.7362 Q1696.9539,387.8338 1697.3608,388.0617 L1697.3608,390.0636 Q1696.9051,389.6405 1696.4656,389.4451 Q1696.0262,389.2336 1695.5705,389.2336 Q1694.5776,389.2336 1694.0731,390.0311 Q1693.5685,390.8123 1693.5685,392.3586 Q1693.5685,393.8885 1694.0731,394.6698 Q1694.5776,395.451 1695.5705,395.451 Q1696.0262,395.451 1696.4656,395.2557 Q1696.9051,395.0604 1697.3608,394.6372 L1697.3608,396.6392 Z " fill="#151515"/><text fill="#151515" font-family="'Verdana'" font-size="11.4583" lengthAdjust="spacing" textLength="94.3802" x="1720.4565" y="396.1789">MainAudioVisual</text><line style="stroke:#D3F198;stroke-width:1.0417;" x1="1600.4375" x2="1903.6057" y1="409.2979" y2="409.2979"/><text fill="#151515" font-family="'Verdana'" font-size="11.4583" lengthAdjust="spacing" text-decoration="underline" textLength="158.1787" x="1610.8542" y="429.3087">+main(args: String[]) : void</text><text fill="#151515" font-family="'Verdana'" font-size="11.4583" lengthAdjust="spacing" text-decoration="underline" textLength="282.3349" x="1610.8542" y="453.0636">+menuPrincipal(gestor: GestorContenidos) : void</text></g><!--reverse link ContenidoAudiovisual to Pelicula--><g class="link" data-entity-1="ContenidoAudiovisual" data-entity-2="Pelicula" data-source-line="127" data-uid="lnk14" id="link_ContenidoAudiovisual_Pelicula"><path codeLine="127" d="M1167.6745,534.591 C1159.3724,558.0181 1155.25,564.7617 1142.6458,585.9909 C1131.4271,604.8763 1117.3542,623.4492 1102.7292,640.5638" fill="none" id="ContenidoAudiovisual-backto-Pelicula" style="stroke:#B5E853;stroke-width:3.125;"/><polygon fill="none" points="1173.9375,516.918,1161.7835,532.5034,1173.5655,536.6787,1173.9375,516.918" style="stroke:#B5E853;stroke-width:3.125;"/></g><!--reverse link ContenidoAudiovisual to SerieDeTV--><g class="link" data-entity-1="ContenidoAudiovisual" data-entity-2="SerieDeTV" data-source-line="128" data-uid="lnk15" id="link_ContenidoAudiovisual_SerieDeTV"><path codeLine="128" d="M1247.0043,534.5464 C1261.7959,570.161 1271.3542,593.1992 1286.1354,628.8034" fill="none" id="ContenidoAudiovisual-backto-SerieDeTV" style="stroke:#B5E853;stroke-width:3.125;"/><polygon fill="none" points="1239.8125,517.2305,1241.2323,536.9436,1252.7762,532.1491,1239.8125,517.2305" style="stroke:#B5E853;stroke-width:3.125;"/></g><!--reverse link ContenidoAudiovisual to Documental--><g class="link" data-entity-1="ContenidoAudiovisual" data-entity-2="Documental" data-source-line="129" data-uid="lnk16" id="link_ContenidoAudiovisual_Documental"><path codeLine="129" d="M1148.36,533.0384 C1131.9016,559.8196 1120.0625,569.9701 1092.6458,585.9909 C997.9063,641.3138 706.5521,591.3867 599.9375,617.2409 C559.3021,627.0846 516.9479,643.2409 479.0625,660.0742" fill="none" id="ContenidoAudiovisual-backto-Documental" style="stroke:#B5E853;stroke-width:3.125;"/><polygon fill="none" points="1158.1771,517.0638,1143.0351,529.766,1153.6848,536.3107,1158.1771,517.0638" style="stroke:#B5E853;stroke-width:3.125;"/></g><!--reverse link IControlable to GestorContenidos--><g class="link" data-entity-1="IControlable" data-entity-2="GestorContenidos" data-source-line="132" data-uid="lnk17" id="link_IControlable_GestorContenidos"><path codeLine="132" d="M2106.1875,267.1784 C2106.1875,287.2409 2106.1875,290.3346 2106.1875,311.5013" fill="none" id="IControlable-backto-GestorContenidos" style="stroke:#B5E853;stroke-width:3.125;stroke-dasharray:7.2917,7.2917;"/><polygon fill="none" points="2106.1875,248.4284,2099.9375,267.1784,2112.4375,267.1784,2106.1875,248.4284" style="stroke:#B5E853;stroke-width:3.125;"/></g><!--reverse link IConsultable to ContenidoAudiovisual--><g class="link" data-entity-1="IConsultable" data-entity-2="ContenidoAudiovisual" data-source-line="135" data-uid="lnk18" id="link_IConsultable_ContenidoAudiovisual"><path codeLine="135" d="M785.2526,208.6067 C819.2318,223.9088 843.8958,234.1263 882.2292,248.0326 C976.1458,282.1055 1012.625,259.4388 1097.8542,311.5742 C1104.2188,315.4701 1110.4583,319.8555 1116.5,324.5846" fill="none" id="IConsultable-backto-ContenidoAudiovisual" style="stroke:#B5E853;stroke-width:3.125;stroke-dasharray:7.2917,7.2917;"/><polygon fill="none" points="768.1563,200.9076,782.6862,214.3055,787.819,202.9079,768.1563,200.9076" style="stroke:#B5E853;stroke-width:3.125;"/></g><!--reverse link IModificable to ContenidoAudiovisual--><g class="link" data-entity-1="IModificable" data-entity-2="ContenidoAudiovisual" data-source-line="136" data-uid="lnk19" id="link_IModificable_ContenidoAudiovisual"><path codeLine="136" d="M1108.7384,217.7674 C1122.728,248.6424 1136.7917,279.6992 1156.375,322.9388" fill="none" id="IModificable-backto-ContenidoAudiovisual" style="stroke:#B5E853;stroke-width:3.125;stroke-dasharray:7.2917,7.2917;"/><polygon fill="none" points="1101,200.6888,1103.0455,220.3469,1114.4313,215.188,1101,200.6888" style="stroke:#B5E853;stroke-width:3.125;"/></g><!--reverse link IConsultable to Actor--><g class="link" data-entity-1="IConsultable" data-entity-2="Actor" data-source-line="139" data-uid="lnk20" id="link_IConsultable_Actor"><path codeLine="139" d="M744.3035,213.9643 C772.3243,242.058 801.375,271.1784 841.25,311.168" fill="none" id="IConsultable-backto-Actor" style="stroke:#B5E853;stroke-width:3.125;stroke-dasharray:7.2917,7.2917;"/><polygon fill="none" points="731.0625,200.6888,739.8784,218.3779,748.7287,209.5506,731.0625,200.6888" style="stroke:#B5E853;stroke-width:3.125;"/></g><!--reverse link IModificable to Actor--><g class="link" data-entity-1="IModificable" data-entity-2="Actor" data-source-line="140" data-uid="lnk21" id="link_IModificable_Actor"><path codeLine="140" d="M1059.6776,217.1265 C1044.261,245.2202 1030.0313,271.1784 1008.0938,311.168" fill="none" id="IModificable-backto-Actor" style="stroke:#B5E853;stroke-width:3.125;stroke-dasharray:7.2917,7.2917;"/><polygon fill="none" points="1068.6979,200.6888,1054.1984,214.1197,1065.1568,220.1332,1068.6979,200.6888" style="stroke:#B5E853;stroke-width:3.125;"/></g><!--reverse link IConsultable to Investigador--><g class="link" data-entity-1="IConsultable" data-entity-2="Investigador" data-source-line="142" data-uid="lnk22" id="link_IConsultable_Investigador"><path codeLine="142" d="M702.996,219.4407 C709.4023,298.9199 724.6354,488.1263 735,616.8867" fill="none" id="IConsultable-backto-Investigador" style="stroke:#B5E853;stroke-width:3.125;stroke-dasharray:7.2917,7.2917;"/><polygon fill="none" points="701.4896,200.7513,696.7662,219.9428,709.2258,218.9386,701.4896,200.7513" style="stroke:#B5E853;stroke-width:3.125;"/></g><!--reverse link IModificable to Investigador--><g class="link" data-entity-1="IModificable" data-entity-2="Investigador" data-source-line="143" data-uid="lnk23" id="link_IModificable_Investigador"><path codeLine="143" d="M944.6966,207.4427 C886.2903,229.1614 838.6875,257.4388 799.9375,311.5742 C765.9063,359.1055 752.4271,511.1055 747.1042,616.8451" fill="none" id="IModificable-backto-Investigador" style="stroke:#B5E853;stroke-width:3.125;stroke-dasharray:7.2917,7.2917;"/><polygon fill="none" points="962.2708,200.9076,942.5182,201.5846,946.8749,213.3007,962.2708,200.9076" style="stroke:#B5E853;stroke-width:3.125;"/></g><!--reverse link IConsultable to Temporada--><g class="link" data-entity-1="IConsultable" data-entity-2="Temporada" data-source-line="145" data-uid="lnk24" id="link_IConsultable_Temporada"><path codeLine="145" d="M625.7419,210.5107 C459.7419,309.0627 16.6667,602.3971 211.3958,834.3555 C339.1354,986.5326 960.7188,1020.6367 1216.0938,1028.2409" fill="none" id="IConsultable-backto-Temporada" style="stroke:#B5E853;stroke-width:3.125;stroke-dasharray:7.2917,7.2917;"/><polygon fill="none" points="641.8646,200.9388,622.5512,205.1364,628.9325,215.8849,641.8646,200.9388" style="stroke:#B5E853;stroke-width:3.125;"/></g><!--reverse link IModificable to Temporada--><g class="link" data-entity-1="IModificable" data-entity-2="Temporada" data-source-line="146" data-uid="lnk25" id="link_IModificable_Temporada"><path codeLine="146" d="M1164.1935,210.0847 C1209.808,236.0326 1255.4167,266.2513 1300.9792,311.5742 C1417.1667,427.1471 1459.2917,460.5117 1507.2292,617.2409 C1535.4479,709.5117 1542.3958,744.5013 1507.2292,834.3555 C1491.8542,873.6367 1464.5,909.7721 1435.6354,940.0221" fill="none" id="IModificable-backto-Temporada" style="stroke:#B5E853;stroke-width:3.125;stroke-dasharray:7.2917,7.2917;"/><polygon fill="none" points="1147.8958,200.8138,1161.1031,215.5173,1167.2838,204.6522,1147.8958,200.8138" style="stroke:#B5E853;stroke-width:3.125;"/></g><!--reverse link Actor to Pelicula--><g class="link" data-entity-1="Actor" data-entity-2="Pelicula" data-source-line="153" data-uid="lnk26" id="link_Actor_Pelicula"><path codeLine="153" d="M975.678,541.2643 C983.8447,577.8998 990.1354,606.0742 997.8333,640.5951" fill="none" id="Actor-backto-Pelicula" style="stroke:#B5E853;stroke-width:3.125;"/><polygon fill="none" points="972.9583,529.0638,970.2513,536.0706,975.678,541.2643,978.385,534.2575,972.9583,529.0638" style="stroke:#B5E853;stroke-width:3.125;"/><text fill="#FFFFFF" font-family="'Verdana'" font-size="12.5" lengthAdjust="spacing" textLength="105.8411" x="991.6042" y="577.802">maneja/participa</text><text fill="#FFFFFF" font-family="'Verdana'" font-size="12.5" lengthAdjust="spacing" textLength="22.1497" x="946.3911" y="553.6529">1..*</text><text fill="#FFFFFF" font-family="'Verdana'" font-size="12.5" lengthAdjust="spacing" textLength="22.1497" x="967.5439" y="624.5354">0..*</text></g><!--reverse link SerieDeTV to Temporada--><g class="link" data-entity-1="SerieDeTV" data-entity-2="Temporada" data-source-line="156" data-uid="lnk27" id="link_SerieDeTV_Temporada"><path codeLine="156" d="M1325.9792,835.3971 C1325.9792,867.0951 1325.9792,890.0638 1325.9792,922.5846" fill="none" id="SerieDeTV-backto-Temporada" style="stroke:#B5E853;stroke-width:3.125;"/><polygon fill="#B5E853" points="1325.9792,822.8971,1321.8125,829.1471,1325.9792,835.3971,1330.1458,829.1471,1325.9792,822.8971" style="stroke:#B5E853;stroke-width:3.125;"/><text fill="#FFFFFF" font-family="'Verdana'" font-size="12.5" lengthAdjust="spacing" textLength="54.1199" x="1332.2292" y="883.4583">contiene</text><text fill="#FFFFFF" font-family="'Verdana'" font-size="12.5" lengthAdjust="spacing" textLength="7.9529" x="1312.8531" y="847.7556">1</text><text fill="#FFFFFF" font-family="'Verdana'" font-size="12.5" lengthAdjust="spacing" textLength="22.1497" x="1297.6706" y="906.2233">0..*</text></g><!--link Documental to Investigador--><g class="link" data-entity-1="Documental" data-entity-2="Investigador" data-source-line="159" data-uid="lnk28" id="link_Documental_Investigador"><path codeLine="159" d="M485.4896,725.793 C529.7708,725.793 567.0729,725.793 611.4271,725.793" fill="none" id="Documental-Investigador" style="stroke:#B5E853;stroke-width:3.125;"/><polygon fill="#B5E853" points="479.2396,725.793,488.6146,729.9596,484.4479,725.793,488.6146,721.6263,479.2396,725.793" style="stroke:#B5E853;stroke-width:3.125;"/><polygon fill="#B5E853" points="617.6771,725.793,608.3021,721.6263,612.4688,725.793,608.3021,729.9596,617.6771,725.793" style="stroke:#B5E853;stroke-width:3.125;"/><text fill="#FFFFFF" font-family="'Verdana'" font-size="12.5" lengthAdjust="spacing" textLength="91.2964" x="503.1563" y="714.4791">tiene/asociado</text><text fill="#FFFFFF" font-family="'Verdana'" font-size="12.5" lengthAdjust="spacing" textLength="7.9529" x="492.2133" y="717.9823">1</text><text fill="#FFFFFF" font-family="'Verdana'" font-size="12.5" lengthAdjust="spacing" textLength="23.8525" x="580.8863" y="743.3643">0..1</text></g><!--link MainAudioVisual to GestorContenidos--><g class="link" data-entity-1="MainAudioVisual" data-entity-2="GestorContenidos" data-source-line="162" data-uid="lnk29" id="link_MainAudioVisual_GestorContenidos"><path codeLine="162" d="M1904.7813,420.1367 C1928,420.1367 1945.5313,420.1367 1968.25,420.1367" fill="none" id="MainAudioVisual-to-GestorContenidos" style="stroke:#B5E853;stroke-width:3.125;stroke-dasharray:7.2917,7.2917;"/><polygon fill="#B5E853" points="1974.5,420.1367,1965.125,415.9701,1969.2917,420.1367,1965.125,424.3034,1974.5,420.1367" style="stroke:#B5E853;stroke-width:3.125;"/><text fill="#FFFFFF" font-family="'Verdana'" font-size="12.5" lengthAdjust="spacing" textLength="22.0947" x="1928.7708" y="408.8228">usa</text></g><!--SRC=[fLVTRjis5BxNKt2v2TtDJhEV6oCBeDXQQo2s0ri8C0oxeAKJXwb46Y8Le6lx57kKFK9VR8UaHFqvBLhxnXHv_iztpY5_q8-G0tbaoJie0lMEYmChM4vc6LCgrBhWkrB38f5Yo_y1yZfuv2aGo0_wFSaXtq6XWa1pdG6PSxP7LaQGmB23cf8jLnhSrXjGcd_-JzXZAJG8daeIbYcNproLB0k2S_Bxz_sGyt925giuslmHpgBj2P82ZgOL3om1ia0pLPbfjaFlFWG4Vp-IN2fTi68EccKPg9dC3nbegUY8eBiOBx4FFdMaB6NA7tZIa-BsYj15M59MBMeXFn5HmhEyPvaifYGsqdTIPi14Jxo9PI6pZdXC1EnPiJ8IrhidGcCYTqzePbkC8zsL2isuaqNCTPb9GhNzhyqm33vRxMGvxiGSoJl8U59YoiD4ou9GPlwcn7uP0MXjHIztA0cAMAPI4PeObAnaFdLmkugl3VKjOWQN5GUApgqBFBM2Ue4u1J8_JyZiDjn69BpPnfjm5eVaJ_8csiQBp_-kJe4GsncC99eO1zNH-5Mf6XCNxWOxRZSjaPzB4Oab5uWArOhYcEnD30SyF6qJZQluAT2Bj1syPydJwcnlp-eCOJITlQPIPU6jLjxMMWFve3JJFFbKxH_g_DVPgm5nNH4eA3ZuqwtvcaDyNn-dCYbp45XH3T7SxpcgSq8b1bKXv398J6n0JIQJKTVRlkbqr8TvDnY8B4ZgiEvaWPMzWSo6dhgAYH1_NB1KLaLemtSYy7wfWBSbi_LgjedYS4ieBkDejPYl4OJRzTrw4qUZKq3eSbbdmkSG0sHGs0UFBTac-hPqhxknhPgAFHgKU0jLu2BsTKA4N-ZKqb5FiSUYnuftW0ak8wml4B9J522Yd2jCNA_5OOdXk9A-iPYFWgNik7V-cEfwXOclbozu-arCwBKzQdnkcUJzRk3VT0epIFirBvxDMCNjXLlj4Qd5i0EuGrgHTwcFD8MAVDINwyrpZRwsJCXyLy00KjWMCZFZU_l2bXV38vRspxxMINhPgazfpJVrW7yXLHsE5wan1dwcDNbgRF5nyAbhOb7cpMORdxO76dzhH7S6G9kd4v642MqYDMC7IzYT10-GFBAc6cvbmh8vqp10WDLAhGqj4uPkExfHnqxlRHiBtvbyLW3QUu247mV0by1XnmHkDhKnSDCUKKlOfXlwwGX7NMdUqINZmWxh-_QmnciRxbDMx5LjsLz_rwAxCn59GPHtI9Bm0yletiwbwM0-3RbF72s_JiWckWrdY_KAnmjTBEzkesMqYd47BpKuMjv6csWrMuGdpPPpyXOGSfZ4uEZbvkhZUEnhwmia3SPUfcdb1_Kkp7NRVYRrOw9p0wOhs4k4q2ZeR5zzd4m6mJVoZkgbDtWlDQ9nRlAUmlQZuA9zjtSQ_Nl1QZnwS-uy25ucG-FMxi9ZtrB6d5HY3yFPJPieVAD1jcyViS3j7s7ejFyXN-Vu2BjlQqTucxEJ4FzR1_5plCrlruZlsQcN-7CIAaHIbVRLT5aDlQlnTNEheZSyvOMxZsAR2Hp9sULaykgCI4JlsMkxz0nJx242djW5FhEnth4vE1HYA1Htgfeh3sfgvWAzPSHVBx3hacV-34HnOL1g6_ieQ5ZFBi_8gqP_UxoODnl75qJVnSlfPVlQOVpiDFo-horQeytG6ssuxB1DYTLsmQogL1grSpY0I6q38TGqMr8gHb2GAz5Hq6_0a-lXgsHgcFu7]--></g></svg>